<?xml version="1.0" encoding="UTF-8"?>
<svg id="Layer_2" data-name="Layer 2" xmlns="http://www.w3.org/2000/svg" viewBox="0 0 1039.62 909">
  <defs>
    <style>
      .cls-1 {
        fill: none;
        stroke: #fff;
        stroke-linejoin: round;
        stroke-width: 5px;
      }
    </style>
  </defs>
  <g id="Layer_1-2" data-name="Layer 1">
    <g>
      <polyline class="cls-1" points="684.89 847.19 684.97 847.19 685.05 847.19 700.71 844.04 716.37 840.89 723.97 852.54 731.58 864.19 736.15 855.69 740.73 847.19 763.05 842 785.38 836.8 785.38 821.6 785.38 806.39 796.54 814.48 807.7 822.58 825.48 814.48 843.26 806.39 866.08 781.53 888.89 756.68 891.95 733.29 895.02 709.91 911.74 697.73 928.46 685.54 924.41 664.74 920.37 643.93 905.65 644.46 890.93 644.99 891.95 637.39 892.98 629.78 907.16 623.16 921.35 616.54 909.7 598.26 898.04 579.99 880.26 560.2 862.48 540.42 853.85 535.84 845.23 531.26 846.78 517.56 848.33 503.87 863.05 489.15 877.77 474.43 890.44 472.43 903.11 470.43 883.33 462.29 863.54 454.16 852.38 464.83 841.22 475.5 821.92 460.78 802.63 446.06 801.12 433.35 799.6 420.63 812.81 417.08 826.01 413.52 837.66 390.18 849.31 366.83 863.54 367.86 877.77 368.88 877.24 390.22 876.7 411.56 899.56 401.91 922.41 392.26 929.52 398.35 936.64 404.44 943.71 401.91 950.78 399.38 947.27 420.67 943.75 441.97 958.47 443 973.18 444.02 982.79 487.64 992.4 531.26 1014.76 518.58 1037.12 505.91 1037.12 487.64 1037.12 469.36 1011.74 440.46 986.35 411.56 978.21 405.96 970.08 400.36 972.61 391.73 975.15 383.1 989.37 375.5 1003.6 367.9 1000.04 342.02 996.49 316.14 989.37 305.96 982.26 295.78 997.14 296.56 1012.02 297.34 1016.93 297.58"/>
      <path class="cls-1" d="M935.59,751.55l-11.16,14.89-11.16,14.89,2.71,15.22,2.71,15.22s2.37,4.06,5.07,7.95,5.75,7.61,7.1,6.94,4.06-5.75,6.43-10.66,4.4-9.64,4.4-9.64l2.71-22.81,2.71-22.81-5.75-4.6-5.75-4.6Z"/>
      <polygon class="cls-1" points="732.6 873.34 721.09 881.8 709.59 890.26 715.34 898.38 721.09 906.5 731.92 906.5 742.75 906.5 749.51 893.31 756.28 880.11 744.44 876.73 732.6 873.34"/>
      <path class="cls-1" d="M685.05,847.19l-12.1-19.05-12.1-19.05-17.25-1.02-17.25-1.02-2.7,7.77-2.7,7.77s-11.16,1.35-22.58,2.54c-11.42,1.2-23.09,2.24-24.11,1.63-1.02-.65-1.19,4.23-1.09,9.28.09,5.05.44,10.26.44,10.26,0,0-5.09,2.37-10.42,4.74s-10.92,4.74-11.9,4.74-7.3-5.42-13.32-10.83c-6.02-5.42-11.78-10.83-11.78-10.83l-3.72-14.23-3.72-14.23-11.16-2-11.16-2-4.05-8.46-4.05-8.46,4.74-10.83,4.74-10.83v-46.03l-11.53-15.9-11.53-15.9s-17.58-.33-36.09-.75c-18.51-.42-37.95-.93-41.67-1.3-3.72-.33-6.95,5.25-9.25,10.92-2.3,5.66-3.67,11.41-3.67,11.41l-22.65,3.76-22.65,3.76-6.09-7.81-6.09-7.81h-56.17s-2.7-2.88-5.57-6.01-5.92-6.5-6.61-7.48c-.65-1.02-15.53,1.35-30.68,3.98-15.15,2.63-30.56,5.51-32.28,5.51s-5.72-6.09-9.35-12.18-6.84-12.18-6.84-12.18l-20.65-5.76-20.65-5.76-.69-18.27-.69-18.27h-17.58l-.33-10.51-.33-10.51,8.14-7.81,8.14-7.81.65-12.14.65-12.14-5.4-9.48-5.4-9.48-19.3,5.11-19.3,5.11-19.3-15.25-19.3-15.25-18.93-29.43-18.93-29.43-3.72-19.62-3.72-19.62,7.44,7.44,7.44,7.44,18.93-4.37,18.93-4.37,19.99-16.27,19.99-16.27,6.42-13.16,6.42-13.16v-54.86l13.2-4.37,13.2-4.37v-32.54l18.93-2.53,18.93-2.53v-23.3l9.81-18.6,9.81-18.6,22.32,10.83,22.32,10.83,20.97,16.88,20.97,16.88v40.64l23.02-.33,23.02-.33,10.14,6.42,10.14,6.42,15.25,1.02,15.25,1.02-4.05,4.05-4.05,4.05,9.44,15.9,9.44,15.9s7.11-1.53,14.48-2.89c7.37-1.36,14.99-2.54,16.02-1.85.98.69,4.19,3.74,7.15,6.61,2.96,2.87,5.68,5.57,5.68,5.57l17.25-6.42,17.25-6.42,18.27,8.46,18.27,8.46h56.82c1.35,0,8.79-4.58,15.89-9.16,7.1-4.58,13.87-9.16,13.87-9.16h43.33l16.56-17.91,16.56-17.91-5.72-5.11-5.72-5.11,1.35-18.44,1.35-18.44,15.9,7.64,15.9,7.64,19.26-13.9,19.26-13.9,2.74-6.09,2.74-6.09,10.14-12.18,10.14-12.18,14.23,1.39,14.23,1.39.65-9.81.65-9.81-17.58-11.53-17.58-11.53-3.07,5.76-3.07,5.76-8.79,2-8.79,2-11.49-5.4-11.49-5.4v-52.08l19.62-3.39,19.62-3.39V6.59l33.48-2.04,33.48-2.04,23.34,19.79,23.34,19.79,2.04,13.37,2.04,13.37s5.23,2.19,10.8,4.37,11.48,4.37,12.83,4.37,3.88,8.65,6.08,17.29c2.2,8.65,4.06,17.29,4.06,17.29l35.2,9.12,35.2,9.12,2.04,15.58,2.04,15.58,16.23,1.02,16.23,1.02,12.18-18.97,12.18-18.97,7.11,8.14,7.11,8.14v98.11l-10.14,1.35-10.14,1.35-10.83,7.11-10.83,7.11,9.44,3.35,9.44,3.35v33.69"/>
    </g>
  </g>
</svg>