<?xml version="1.0" encoding="UTF-8"?>
<svg id="Layer_2" data-name="Layer 2" xmlns="http://www.w3.org/2000/svg" viewBox="0 0 273.87 77.9">
  <defs>
    <style>
      .cls-1 {
        fill: none;
        stroke: #fff;
        stroke-miterlimit: 10;
        stroke-width: 3px;
      }

      .cls-2 {
        fill: #fff;
        stroke-width: 0px;
      }
    </style>
  </defs>
  <g id="Layer_1-2" data-name="Layer 1">
    <g>
      <g>
        <path class="cls-2" d="M25.95,10.47h21.35c2.49,0,4.81.39,6.97,1.16,2.16.78,4.05,1.89,5.67,3.35,1.62,1.46,2.9,3.22,3.84,5.28.94,2.07,1.41,4.37,1.41,6.9,0,1.69-.26,3.39-.77,5.11-.52,1.71-1.28,3.31-2.29,4.79-1.01,1.48-2.25,2.79-3.73,3.95-1.48,1.15-3.21,2.03-5.18,2.64l11.34,19.66h-13.95l-7.68-18.74-5.71.07v18.67h-11.27V10.47ZM37.23,34.29l10.15-.14c1.5,0,2.76-.33,3.77-.99,1.01-.66,1.78-1.48,2.32-2.46.54-.99.81-2.05.81-3.21s-.25-2.22-.74-3.21-1.26-1.81-2.29-2.47c-1.03-.66-2.35-.99-3.95-.99h-10.07v13.46Z"/>
        <path class="cls-2" d="M65.9,43.94c0-2.91.46-5.59,1.37-8.03.92-2.44,2.2-4.55,3.84-6.34,1.64-1.78,3.59-3.18,5.85-4.19,2.25-1.01,4.72-1.51,7.4-1.51,2.54,0,4.79.49,6.76,1.48s3.64,2.31,5,3.98c1.36,1.67,2.4,3.58,3.1,5.74.7,2.16,1.06,4.44,1.06,6.83,0,.52-.02,1.06-.07,1.62,0,.47-.02,1.01-.07,1.62-.05.61-.12,1.25-.21,1.9h-23.6c.19.99.47,1.94.85,2.85.38.92.88,1.73,1.51,2.43.63.71,1.42,1.28,2.36,1.73.94.45,2.04.67,3.31.67,1.41,0,2.67-.23,3.77-.7,1.1-.47,2.05-1,2.85-1.59.8-.59,1.43-1.14,1.9-1.66.47-.52.75-.8.85-.85l5.35,7.33c-.61.7-1.34,1.46-2.18,2.25-.85.8-1.86,1.53-3.03,2.18-1.17.66-2.54,1.21-4.09,1.66-1.55.45-3.36.67-5.42.67-2.68,0-5.14-.51-7.4-1.51-2.25-1.01-4.2-2.41-5.85-4.19-1.64-1.78-2.92-3.9-3.84-6.34-.92-2.44-1.37-5.12-1.37-8.03ZM90.28,40.7c.05-.42.05-.89,0-1.41-.05-.47-.13-.97-.25-1.51-.12-.54-.34-1.12-.67-1.73-.14-.28-.35-.59-.63-.92-.28-.33-.63-.64-1.06-.95-.42-.31-.9-.56-1.44-.78-.54-.21-1.16-.32-1.87-.32-1.17,0-2.22.21-3.14.63-.92.42-1.7.99-2.36,1.69-.66.7-1.19,1.51-1.58,2.43-.4.92-.69,1.87-.88,2.85h13.88Z"/>
        <path class="cls-2" d="M103.1,42.32c0-2.35.29-4.66.88-6.94.59-2.28,1.51-4.31,2.78-6.09,1.27-1.79,2.89-3.22,4.86-4.3,1.97-1.08,4.32-1.62,7.04-1.62,1.41,0,2.62.13,3.63.39,1.01.26,1.89.63,2.64,1.13.75.49,1.4,1.12,1.94,1.87.54.75,1.04,1.6,1.51,2.54v-4.72h10.07v33.54c0,3.48-.6,6.46-1.8,8.95-1.2,2.49-2.72,4.52-4.58,6.09-1.86,1.57-3.89,2.75-6.09,3.52-2.21.78-4.34,1.19-6.41,1.23h-.42c-1.93,0-3.98-.32-6.16-.95-2.18-.63-4.17-1.56-5.95-2.78l4.23-9.02c1.13.94,2.38,1.7,3.77,2.29,1.38.59,2.83.88,4.33.88,2.63,0,4.79-.84,6.48-2.54,1.69-1.69,2.54-4.18,2.54-7.47v-2.61c-.99,1.64-2.25,3.01-3.8,4.09-1.55,1.08-3.52,1.62-5.92,1.62-2.72,0-5.07-.54-7.04-1.62-1.97-1.08-3.59-2.51-4.86-4.3-1.27-1.78-2.2-3.83-2.78-6.13-.59-2.3-.88-4.65-.88-7.04ZM120.99,52.18c1.31,0,2.47-.29,3.45-.88.99-.59,1.8-1.35,2.43-2.29.63-.94,1.1-2,1.41-3.17.31-1.17.46-2.33.46-3.45s-.15-2.28-.46-3.45c-.31-1.17-.77-2.22-1.41-3.13-.63-.92-1.44-1.67-2.43-2.25-.99-.59-2.14-.88-3.45-.88-1.69,0-3.09.48-4.19,1.44-1.1.96-1.94,2.17-2.5,3.63-.56,1.46-.85,3.02-.85,4.68s.28,3.23.85,4.69,1.4,2.67,2.5,3.63c1.1.96,2.5,1.44,4.19,1.44Z"/>
        <path class="cls-2" d="M143.75,24.49h10.43v10.88c0,2.56-.01,4.44-.04,5.64-.02,1.2-.04,1.9-.04,2.11v.39c0,1.17.08,2.4.25,3.66.16,1.27.49,2.43.99,3.49s1.21,1.94,2.15,2.64c.94.71,2.18,1.06,3.73,1.06,2.44,0,4.45-.96,6.02-2.89,1.57-1.92,2.36-4.79,2.36-8.59v-18.39h9.93v38.82h-10.14v-6.69c-1.03,1.97-2.39,3.65-4.09,5.04-1.69,1.39-3.83,2.08-6.41,2.08-2.77,0-5.12-.53-7.04-1.58-1.93-1.06-3.49-2.48-4.69-4.26-1.2-1.78-2.06-3.84-2.57-6.16-.52-2.33-.77-4.76-.77-7.29v-.56c0-.33-.01-1.14-.04-2.43-.02-1.29-.04-3.26-.04-5.92v-11.03Z"/>
        <path class="cls-2" d="M195.25,63.31h-10.07V5.75h10.07v57.56Z"/>
        <path class="cls-2" d="M199.47,43.94c0-2.91.46-5.59,1.37-8.03.92-2.44,2.19-4.55,3.84-6.34,1.64-1.78,3.59-3.18,5.85-4.19,2.25-1.01,4.72-1.51,7.4-1.51,2.54,0,4.79.49,6.76,1.48s3.64,2.31,5,3.98c1.36,1.67,2.4,3.58,3.1,5.74.7,2.16,1.06,4.44,1.06,6.83,0,.52-.02,1.06-.07,1.62,0,.47-.02,1.01-.07,1.62-.05.61-.12,1.25-.21,1.9h-23.6c.19.99.47,1.94.85,2.85.38.92.88,1.73,1.51,2.43.63.71,1.42,1.28,2.36,1.73s2.04.67,3.31.67c1.41,0,2.67-.23,3.77-.7,1.1-.47,2.05-1,2.85-1.59.8-.59,1.43-1.14,1.9-1.66.47-.52.75-.8.85-.85l5.35,7.33c-.61.7-1.34,1.46-2.18,2.25-.84.8-1.86,1.53-3.03,2.18-1.17.66-2.54,1.21-4.09,1.66-1.55.45-3.36.67-5.42.67-2.68,0-5.14-.51-7.4-1.51-2.25-1.01-4.2-2.41-5.85-4.19-1.64-1.78-2.92-3.9-3.84-6.34-.92-2.44-1.37-5.12-1.37-8.03ZM223.85,40.7c.05-.42.05-.89,0-1.41-.05-.47-.13-.97-.25-1.51s-.34-1.12-.67-1.73c-.14-.28-.35-.59-.63-.92-.28-.33-.63-.64-1.06-.95s-.91-.56-1.44-.78c-.54-.21-1.16-.32-1.87-.32-1.17,0-2.22.21-3.13.63-.92.42-1.7.99-2.36,1.69-.66.7-1.19,1.51-1.58,2.43-.4.92-.69,1.87-.88,2.85h13.88Z"/>
        <path class="cls-2" d="M238.08,63.31V24.49h10.21v6.69c1.03-2.02,2.38-3.75,4.05-5.18,1.67-1.43,3.79-2.15,6.38-2.15,2.82,0,5.19.5,7.12,1.51,1.92,1.01,3.47,2.36,4.65,4.05,1.17,1.69,2.02,3.68,2.54,5.95.52,2.28.78,4.68.78,7.22v.67c0,.4.01,1.3.04,2.71.02,1.41.04,3.48.04,6.2v11.13h-10.36v-19.02c0-1.17-.08-2.41-.25-3.7-.17-1.29-.49-2.49-.99-3.59-.49-1.1-1.21-2.02-2.15-2.75-.94-.73-2.18-1.09-3.73-1.09-2.44,0-4.45,1.01-6.02,3.03s-2.36,4.93-2.36,8.74v2.33c0,1.17.01,2.99.04,5.46.02,2.47.04,6,.04,10.6h-10Z"/>
      </g>
      <polygon class="cls-1" points="37.94 71.96 1.86 71.96 17.09 1.5 54.16 1.5 37.94 71.96"/>
    </g>
  </g>
</svg>