<?xml version="1.0" encoding="UTF-8"?>
<svg id="Layer_2" data-name="Layer 2" xmlns="http://www.w3.org/2000/svg" viewBox="0 0 1571.44 963.82">
  <defs>
    <style>
      .cls-1 {
        fill: none;
        stroke: #fff;
        stroke-linejoin: round;
        stroke-width: 5px;
      }
    </style>
  </defs>
  <g id="Layer_1-2" data-name="Layer 1">
    <path class="cls-1" d="M616.29,935.89l-21.53-15.36-21.53-15.36-15.3-48-15.3-48-19.86-7.16-19.86-7.16-14.81,14.81-14.81,14.81-20.42-47.44-20.42-47.44-18.94-6.17-18.94-6.17-13.76,9.19-13.76,9.19h-81.68l-53.12-25.97-53.12-25.97-31.89-6.54-36.6-26.45,2.13,1.23-30.63-19.91-30.63-19.91-18.38-32.17-18.38-32.17,6.13-35.23,6.13-35.23-12.25-9.19-12.25-9.19v-159.29l26.04-68.93,26.04-68.93,19.91-6.13,19.91-6.13-13.79-15.32-13.79-15.32-9.19-35.23-9.19-35.23,16.85-4.6,16.85-4.6,1.53,22.98,1.53,22.98h39.82V2.5l-.06,1.71c18.75,4.87,42.91,11.07,62.82,16.06s35.58,8.74,37.37,8.74c2.53,0,46.67,5.89,90.18,11.78,43.51,5.89,86.38,11.78,86.38,11.78,0,0,74.56,5.86,150.9,12.11,76.34,6.25,154.48,12.88,161.63,14.42,7.16,1.54,43.15,1.54,77.36,1.16,34.21-.39,66.63-1.16,66.63-1.16l54.1,27.33,54.1,27.33-14.81,12.46-14.81,12.46,22.95,14.81,22.95,14.81,24-12.22,24-12.22,8.21,14.81,8.21,14.81,28.56,8.64,28.56,8.64-26.53,8.7-26.53,8.7-25.05,39.3-25.05,39.3v64.41l13.82,5.06,13.82,5.06,10.67-15.3,10.67-15.3v-60.21l36.28-33.19,36.28-33.19,18.88,18.88,18.88,18.88-9.19,3.08-9.19,3.08-14.25,25.54-14.25,25.54s6.11-2.81,12.86-5.75c6.76-2.95,14.16-6.03,16.75-6.59,2.53-.49,6.35,3.33,9.55,7.28,3.19,3.95,5.75,8.02,5.75,8.02l-22.46,36.28-22.46,36.28,23.44,4.07,23.44,4.07,23.5-9.69,23.5-9.69,20.42-19.37,20.42-19.37,37.26-2.1,37.26-2.1,3.08-12.71,3.08-12.71,10.73-15.11,10.73-15.11h97.97l17.34-7.4,17.34-7.4,24.55-29.61,24.55-29.61,18.38,4.13,18.38,4.13v59.1l-1.08.08-6.13,10.72-6.13,10.72-18.38,3.06-18.38,3.06-32.17,19.91-32.17,19.91v70.46l-35.23-1.53-35.23-1.53-19.91,10.72-19.91,10.72,3.06,22.98,3.06,22.98-30.63-4.6-30.63-4.6-19.91,22.98-19.91,22.98,10.72,44.42,10.72,44.42-90.37,81.18-90.37,81.18,19.91,81.99,19.91,81.99-15.32,14.51-15.32,14.51-15.32-26.04-15.32-26.04-4.6-36.76-4.6-36.76-13.79-15.32-13.79-15.32-21.44,4.6-21.44,4.6-4.6-12.25-4.6-12.25h-110.28l-10.72,18.38-10.72,18.38-62.8-12.25-62.8-12.25-38.29,30.63-38.29,30.63-15.32,37.57-15.32,37.57"/>
  </g>
</svg>